<?xml version="1.0" encoding="UTF-8" standalone="no"?>
<!-- Created with Inkscape (http://www.inkscape.org/) -->

<svg
   version="1.1"
   id="svg1"
   width="529.59998"
   height="533.59998"
   viewBox="0 0 529.59998 533.59998"
   sodipodi:docname="Logo_enlace_vectorizado.svg"
   inkscape:version="1.4.3 (0d15f75, 2025-12-25)"
   inkscape:export-filename="Logo_enlace_vectorizado_192.png"
   inkscape:export-xdpi="28.618774"
   inkscape:export-ydpi="28.618774"
   xmlns:inkscape="http://www.inkscape.org/namespaces/inkscape"
   xmlns:sodipodi="http://sodipodi.sourceforge.net/DTD/sodipodi-0.dtd"
   xmlns="http://www.w3.org/2000/svg"
   xmlns:svg="http://www.w3.org/2000/svg">
  <defs
     id="defs1">
    <inkscape:path-effect
       effect="spiro"
       id="path-effect14"
       is_visible="true"
       lpeversion="1" />
    <inkscape:path-effect
       effect="spiro"
       id="path-effect13"
       is_visible="true"
       lpeversion="1" />
    <inkscape:path-effect
       effect="spiro"
       id="path-effect12"
       is_visible="true"
       lpeversion="1" />
    <inkscape:path-effect
       effect="spiro"
       id="path-effect11"
       is_visible="true"
       lpeversion="1" />
    <inkscape:path-effect
       effect="spiro"
       id="path-effect10"
       is_visible="true"
       lpeversion="1" />
    <inkscape:path-effect
       effect="spiro"
       id="path-effect9"
       is_visible="true"
       lpeversion="1" />
    <inkscape:path-effect
       effect="spiro"
       id="path-effect8"
       is_visible="true"
       lpeversion="1" />
    <inkscape:path-effect
       effect="spiro"
       id="path-effect7"
       is_visible="true"
       lpeversion="1" />
    <inkscape:path-effect
       effect="spiro"
       id="path-effect5"
       is_visible="true"
       lpeversion="1" />
    <inkscape:path-effect
       effect="spiro"
       id="path-effect2"
       is_visible="true"
       lpeversion="1" />
    <inkscape:path-effect
       effect="spiro"
       id="path-effect12-9"
       is_visible="true"
       lpeversion="1" />
  </defs>
  <sodipodi:namedview
     id="namedview1"
     pagecolor="#505050"
     bordercolor="#ffffff"
     borderopacity="1"
     inkscape:showpageshadow="0"
     inkscape:pageopacity="0"
     inkscape:pagecheckerboard="1"
     inkscape:deskcolor="#505050"
     inkscape:zoom="1"
     inkscape:cx="192.49999"
     inkscape:cy="273.49999"
     inkscape:window-width="1920"
     inkscape:window-height="1051"
     inkscape:window-x="-9"
     inkscape:window-y="-9"
     inkscape:window-maximized="1"
     inkscape:current-layer="g1" />
  <g
     inkscape:groupmode="layer"
     inkscape:label="Image"
     id="g1">
    <path
       style="opacity:1;fill:none;stroke:#14213d;stroke-width:32;stroke-linecap:round;stroke-linejoin:miter;stroke-dasharray:none;stroke-opacity:1;paint-order:stroke fill markers"
       d="m 121.70948,235.09147 c 35.93612,22.60722 76.54323,37.75257 118.5066,44.19975 39.78123,6.11192 82.37054,3.96473 117.45992,-15.74914 11.03465,-6.19948 21.25847,-14.15983 28.74765,-24.36323 7.48918,-10.20339 12.09868,-22.79021 11.43639,-35.42977 -0.74819,-14.27905 -8.19658,-27.70172 -18.63215,-37.47668 -10.43558,-9.77496 -23.66367,-16.16479 -37.33246,-20.36184 -23.71832,-7.28279 -49.47788,-8.24371 -73.44239,-1.81724 -23.96452,6.42648 -46.00776,20.35036 -61.37467,39.82998 -16.54996,20.9793 -24.91946,47.59473 -27.07646,74.22891 -2.6678,32.94149 4.37228,67.6885 24.98247,93.52412 14.68331,18.40606 35.74881,31.47153 58.59706,37.15843 22.84824,5.68689 47.34808,4.08058 69.51818,-3.84846 32.46565,-11.6112 59.74836,-36.99598 73.66627,-68.54166"
       id="path2"
       sodipodi:nodetypes="csassssssc"
       transform="translate(-7.9999998,-4.2495484)"
       inkscape:original-d="m 121.70948,235.09147 c 39.71572,15.1603 79.43145,29.03945 118.5066,44.19975 39.07514,15.16031 83.91031,5.10667 117.45992,-15.74914 20.39438,-12.67798 31.64303,-32.03469 40.18404,-59.793 8.54102,-27.7583 -35.89322,-47.37578 -55.96461,-57.83852 -20.07139,-10.46275 -98.73126,24.98769 -134.81706,38.01274 -36.08579,13.02505 -13.62436,47.32471 -27.07646,74.22891 -13.4521,26.9042 16.65498,62.34942 24.98247,93.52412 8.32749,31.17471 85.41016,21.99312 128.11524,33.30997 42.70508,11.31684 49.11085,-45.48091 73.66627,-68.54166"
       inkscape:path-effect="#path-effect2" />
    <rect
       style="opacity:1;fill:none;stroke:#3a86ff;stroke-width:26.0827;stroke-linecap:round;stroke-linejoin:miter;stroke-dasharray:none;stroke-opacity:1;paint-order:stroke fill markers"
       id="rect3"
       width="204.5889"
       height="99.291344"
       x="-166.92639"
       y="330.05096"
       rx="51.873646"
       transform="matrix(0.71892587,-0.69508675,0.70229346,0.71188756,0,0)"
       ry="49.645672" />
    <path
       style="opacity:1;fill:none;stroke:#ffffff;stroke-width:7;stroke-linecap:round;stroke-linejoin:miter;stroke-dasharray:none;stroke-opacity:1;paint-order:stroke fill markers"
       d="m 138.21313,302.45495 38.75516,-36.79286 39.51507,-39.79636 z"
       id="path3" />
    <path
       style="fill:none;stroke:#ffffff;stroke-width:6.44713;stroke-linecap:round;stroke-linejoin:miter;stroke-dasharray:none;stroke-opacity:1;paint-order:stroke fill markers"
       d="m 194.19644,293.90975 19.07031,-17.87161 19.44426,-19.33053 z"
       id="path3-2" />
    <path
       style="fill:none;fill-opacity:1;stroke:#14213d;stroke-width:31.5;stroke-linecap:round;stroke-linejoin:miter;stroke-dasharray:none;stroke-opacity:1;paint-order:stroke fill markers"
       d="m 271.87393,284.32114 c 8.93161,-0.48218 17.84896,-1.22849 26.73647,-2.23761 8.62431,-0.97924 17.23449,-2.20856 25.68185,-4.20348 6.52792,-1.54163 12.94324,-3.53709 19.2562,-5.80354 6.47707,-2.32537 12.85125,-4.93734 19.09763,-7.82569"
       id="path11-9"
       transform="matrix(0.90710994,0.01898153,-0.01921213,0.82729436,16.072086,35.930903)"
       sodipodi:nodetypes="csssc"
       inkscape:original-d="m 271.87393,284.32114 c 8.76424,-0.37561 17.221,-1.86199 26.73647,-2.23761 9.51547,-0.37561 18.04444,-3.20185 25.68185,-4.20348 7.63742,-1.00163 13.30832,-2.46261 19.2562,-5.80354 6.44617,-3.62081 12.96266,-4.4452 19.09763,-7.82569"
       inkscape:path-effect="#path-effect12-9" />
    <path
       style="opacity:1;fill:none;fill-opacity:1;stroke:#14213d;stroke-width:31.5;stroke-linecap:round;stroke-linejoin:miter;stroke-dasharray:none;stroke-opacity:1;paint-order:stroke fill markers"
       d="m 270.81522,283.21037 c 9.27453,-0.0447 18.54747,-0.4206 27.79518,-1.12684 7.68622,-0.58699 15.37156,-1.4047 22.91224,-3.00488 7.33199,-1.55589 14.50351,-3.84861 21.40981,-6.76099 6.25045,-2.63581 12.28658,-5.77962 18.0293,-9.39026"
       id="path11"
       transform="matrix(0.90710994,0.01898153,-0.01921213,0.82729436,19.358675,41.423247)"
       inkscape:original-d="m 270.81522,283.21037 c 8.76424,-0.37561 18.27971,-0.75122 27.79518,-1.12684 9.51547,-0.37561 15.27483,-2.00325 22.91224,-3.00488 7.63742,-1.00163 14.39841,-4.75773 21.40981,-6.76099 7.01139,-2.00326 11.89433,-6.00977 18.0293,-9.39026"
       inkscape:path-effect="#path-effect12" />
    <path
       style="opacity:1;fill:none;fill-opacity:1;stroke:#14213d;stroke-width:32;stroke-linecap:round;stroke-linejoin:miter;stroke-dasharray:none;stroke-opacity:1;paint-order:stroke fill markers"
       d="m 198.71217,340.5057 c 4.71483,7.68254 10.42876,14.75114 16.95241,20.97152 7.33217,6.99132 15.68532,12.90707 24.7005,17.52938 9.04575,4.63799 18.74303,7.97028 28.68446,10.09268 16.47409,3.51706 33.65297,3.69885 50.19779,0.53119"
       id="path13"
       transform="rotate(-1.099714,74.805951,782.43027)"
       sodipodi:nodetypes="csssc"
       inkscape:original-d="m 198.71217,340.5057 c 6.02019,6.37432 11.19782,14.86279 16.95241,20.97152 5.7546,6.10872 16.467,11.68625 24.7005,17.52938 8.2335,5.84313 19.2115,6.55139 28.68446,10.09268 9.47295,3.54129 33.37666,0.53119 50.19779,0.53119"
       inkscape:path-effect="#path-effect14" />
  </g>
</svg>
