<?xml version="1.0" encoding="UTF-8" standalone="no"?>
<!-- Favicon: igual que Logo_enlace_vectorizado_sin_fondo.svg pero con un
     círculo blanco detrás para que se vea sobre pestañas/temas oscuros. -->

<svg
   version="1.1"
   id="svg1"
   width="529.59998"
   height="533.59998"
   viewBox="0 0 529.59998 533.59998"
   xmlns="http://www.w3.org/2000/svg"
   xmlns:svg="http://www.w3.org/2000/svg">
  <circle cx="264.8" cy="266.8" r="260" fill="#ffffff" />
  <g id="g1">
    <path
       id="path2"
       style="fill:#14213d;stroke-linecap:round;paint-order:stroke fill markers;opacity:1"
       d="M 305.70312 123.85502 C 291.82844 123.46705 277.86882 125.00183 264.30859 128.63822 C 237.13045 135.92649 212.19444 151.60295 194.51562 174.01322 C 179.02638 193.64792 170.20029 216.99477 166.1582 240.71439 C 153.76433 235.13459 141.72231 228.77906 130.22852 221.54838 A 16 16 0 0 0 108.16602 226.57181 A 16 16 0 0 0 113.18945 248.63431 C 129.19355 258.7024 146.10055 267.26395 163.58398 274.41361 C 163.63575 277.73299 163.77927 281.06011 164.01953 284.38431 L 196.73828 252.36674 C 199.51412 230.71628 206.92347 209.95229 219.64062 193.83158 C 232.69563 177.28261 251.84677 165.11112 272.59766 159.54642 C 283.00195 156.75634 293.90427 155.56017 304.83008 155.86674 C 315.75588 156.17331 326.70502 157.98235 337.19922 161.20463 C 349.28089 164.91435 360.23796 170.40733 368.28906 177.94877 C 376.16337 185.3246 381.39755 195.32443 381.88281 204.58549 C 382.31306 212.79671 379.15368 222.04241 373.52539 229.71049 C 367.79737 237.51445 359.45473 244.19148 349.83984 249.5933 C 319.16207 266.82865 280.23822 269.23861 242.73437 263.48978 L 223.50586 282.60697 L 214.89258 290.67924 C 222.46413 292.43448 230.09861 293.92377 237.78711 295.10502 C 279.81842 301.56264 326.03685 299.67055 365.51367 277.49174 C 377.9681 270.49461 390.07192 261.24887 399.32227 248.64603 C 408.67234 235.90733 414.73221 219.97955 413.83789 202.91166 C 412.82677 183.61463 403.16286 166.76934 390.16602 154.59525 C 377.34597 142.58678 361.8477 135.29916 346.5918 130.61478 C 333.36768 126.55427 319.57781 124.24299 305.70312 123.85502 z M 204.70703 254.99955 L 187.41602 272.41361 L 164.95508 293.73588 C 168.0777 318.03095 176.63339 341.79385 192.47656 361.65385 C 209.51031 383.00626 233.53158 397.84341 259.7168 404.36088 C 285.85168 410.86581 313.44399 409.00927 338.48828 400.05228 C 375.24016 386.90814 405.6489 358.61234 421.4043 322.90189 A 16 16 0 0 0 413.22461 301.80619 A 16 16 0 0 0 392.12695 309.98588 C 380.04653 337.36679 355.89036 359.84123 327.71094 369.91947 C 308.41504 376.82057 287.00691 378.177 267.44531 373.30814 C 247.93405 368.45182 229.82507 357.15848 217.49219 341.69877 C 205.26696 326.374 198.48338 306.58083 196.32227 285.82377 C 199.94436 286.87603 203.58258 287.87279 207.23633 288.8101 L 234.82422 262.16166 C 224.67198 260.30997 214.61685 257.90829 204.70703 254.99955 z "
       transform="translate(-7.9999998,-4.2495484)" />
    <rect
       style="opacity:1;fill:none;stroke:#3a86ff;stroke-width:26.0827;stroke-linecap:round;stroke-linejoin:miter;stroke-dasharray:none;stroke-opacity:1;paint-order:stroke fill markers"
       id="rect3"
       width="204.5889"
       height="99.291344"
       x="-166.92639"
       y="330.05096"
       rx="51.873646"
       transform="matrix(0.71892587,-0.69508675,0.70229346,0.71188756,0,0)"
       ry="49.645672" />
    <path
       style="fill:none;fill-opacity:1;stroke:#14213d;stroke-width:31.5;stroke-linecap:round;stroke-linejoin:miter;stroke-dasharray:none;stroke-opacity:1;paint-order:stroke fill markers"
       d="m 271.87393,284.32114 c 8.93161,-0.48218 17.84896,-1.22849 26.73647,-2.23761 8.62431,-0.97924 17.23449,-2.20856 25.68185,-4.20348 6.52792,-1.54163 12.94324,-3.53709 19.2562,-5.80354 6.47707,-2.32537 12.85125,-4.93734 19.09763,-7.82569"
       id="path11-9"
       transform="matrix(0.90710994,0.01898153,-0.01921213,0.82729436,16.072086,35.930903)" />
    <path
       style="opacity:1;fill:none;fill-opacity:1;stroke:#14213d;stroke-width:31.5;stroke-linecap:round;stroke-linejoin:miter;stroke-dasharray:none;stroke-opacity:1;paint-order:stroke fill markers"
       d="m 270.81522,283.21037 c 9.27453,-0.0447 18.54747,-0.4206 27.79518,-1.12684 7.68622,-0.58699 15.37156,-1.4047 22.91224,-3.00488 7.33199,-1.55589 14.50351,-3.84861 21.40981,-6.76099 6.25045,-2.63581 12.28658,-5.77962 18.0293,-9.39026"
       id="path11"
       transform="matrix(0.90710994,0.01898153,-0.01921213,0.82729436,19.358675,41.423247)" />
    <path
       style="opacity:1;fill:none;fill-opacity:1;stroke:#14213d;stroke-width:32;stroke-linecap:round;stroke-linejoin:miter;stroke-dasharray:none;stroke-opacity:1;paint-order:stroke fill markers"
       d="m 198.71217,340.5057 c 4.71483,7.68254 10.42876,14.75114 16.95241,20.97152 7.33217,6.99132 15.68532,12.90707 24.7005,17.52938 9.04575,4.63799 18.74303,7.97028 28.68446,10.09268 16.47409,3.51706 33.65297,3.69885 50.19779,0.53119"
       id="path13"
       transform="rotate(-1.099714,74.805951,782.43027)" />
  </g>
</svg>
